<mxfile host="65bd71144e">
    <diagram id="HSMd7I8naoybt2gILDuz" name="Page-1">
        <mxGraphModel dx="850" dy="654" grid="1" gridSize="10" guides="1" tooltips="1" connect="1" arrows="1" fold="1" page="1" pageScale="1" pageWidth="850" pageHeight="1100" math="0" shadow="0">
            <root>
                <mxCell id="0"/>
                <mxCell id="1" parent="0"/>
                <mxCell id="8" style="edgeStyle=none;html=1;exitX=0.5;exitY=1;exitDx=0;exitDy=0;" parent="1" source="2" target="4" edge="1">
                    <mxGeometry relative="1" as="geometry"/>
                </mxCell>
                <mxCell id="2" value="&lt;b&gt;Aerodynamic_file_names&lt;/b&gt;&lt;div&gt;(Reads and creates a list of filenames containing aerodynamic inputs of fifferenr airfoils)&lt;/div&gt;" style="rounded=0;whiteSpace=wrap;html=1;" parent="1" vertex="1">
                    <mxGeometry x="60" y="80" width="180" height="90" as="geometry"/>
                </mxCell>
                <mxCell id="3" value="&lt;b&gt;Read_Blade_data&lt;/b&gt;&lt;br&gt;(Reads and stores the values on blade geomerty)" style="rounded=0;whiteSpace=wrap;html=1;" parent="1" vertex="1">
                    <mxGeometry x="270" y="95" width="160" height="60" as="geometry"/>
                </mxCell>
                <mxCell id="12" style="edgeStyle=none;html=1;exitX=0.5;exitY=1;exitDx=0;exitDy=0;" parent="1" source="4" target="5" edge="1">
                    <mxGeometry relative="1" as="geometry"/>
                </mxCell>
                <mxCell id="4" value="&lt;b&gt;Blade_order_Airfoils&lt;br&gt;&lt;/b&gt;(Orders the aerodynamic inputs in the order of airfoils in the blade)" style="rounded=0;whiteSpace=wrap;html=1;" parent="1" vertex="1">
                    <mxGeometry x="60" y="220" width="180" height="60" as="geometry"/>
                </mxCell>
                <mxCell id="5" value="&lt;b&gt;Aerodynamic_inputs (class)&lt;/b&gt;&lt;div&gt;(Creates tables on lift and drag coefficients corresponding to the ordered airfoils and angles of attack)&lt;/div&gt;" style="rounded=0;whiteSpace=wrap;html=1;fillColor=#ffe6cc;strokeColor=#d79b00;" parent="1" vertex="1">
                    <mxGeometry x="60" y="330" width="180" height="90" as="geometry"/>
                </mxCell>
                <mxCell id="11" style="edgeStyle=none;html=1;exitX=0.5;exitY=1;exitDx=0;exitDy=0;entryX=0.5;entryY=0;entryDx=0;entryDy=0;" parent="1" source="6" target="7" edge="1">
                    <mxGeometry relative="1" as="geometry"/>
                </mxCell>
                <mxCell id="6" value="&lt;b&gt;Airfoil_coord_names&lt;/b&gt;&lt;div&gt;(Reads and creates a ist of filesnames containing polar coordinates of airfoils)&lt;/div&gt;" style="rounded=0;whiteSpace=wrap;html=1;" parent="1" vertex="1">
                    <mxGeometry x="455" y="95" width="150" height="60" as="geometry"/>
                </mxCell>
                <mxCell id="7" value="&lt;b&gt;plot_airfoil&lt;/b&gt;&lt;div&gt;(Reads the coordinates of airfoils in the order present in the blads, and plots considering the twoist angle)&lt;/div&gt;" style="rounded=0;whiteSpace=wrap;html=1;fillColor=#dae8fc;strokeColor=#6c8ebf;" parent="1" vertex="1">
                    <mxGeometry x="420" y="210" width="220" height="80" as="geometry"/>
                </mxCell>
                <mxCell id="23" style="edgeStyle=none;html=1;exitX=0.5;exitY=1;exitDx=0;exitDy=0;entryX=0.5;entryY=0;entryDx=0;entryDy=0;" parent="1" source="47" target="15" edge="1">
                    <mxGeometry relative="1" as="geometry"/>
                </mxCell>
                <mxCell id="52" style="edgeStyle=none;html=1;entryX=0.5;entryY=0;entryDx=0;entryDy=0;" parent="1" source="13" target="47" edge="1">
                    <mxGeometry relative="1" as="geometry">
                        <Array as="points">
                            <mxPoint x="700" y="320"/>
                        </Array>
                    </mxGeometry>
                </mxCell>
                <mxCell id="13" value="&lt;b&gt;Blade_opt_data&lt;/b&gt;&lt;div&gt;(Reads and stores the blade operational data)&lt;/div&gt;" style="rounded=0;whiteSpace=wrap;html=1;" parent="1" vertex="1">
                    <mxGeometry x="640" y="95" width="120" height="60" as="geometry"/>
                </mxCell>
                <mxCell id="26" style="edgeStyle=none;html=1;entryX=1;entryY=0.5;entryDx=0;entryDy=0;" parent="1" source="15" target="16" edge="1">
                    <mxGeometry relative="1" as="geometry"/>
                </mxCell>
                <mxCell id="70" style="edgeStyle=none;html=1;exitX=0.5;exitY=1;exitDx=0;exitDy=0;entryX=0.5;entryY=1;entryDx=0;entryDy=0;" edge="1" parent="1" source="15" target="66">
                    <mxGeometry relative="1" as="geometry">
                        <Array as="points">
                            <mxPoint x="700" y="770"/>
                            <mxPoint x="430" y="770"/>
                        </Array>
                    </mxGeometry>
                </mxCell>
                <mxCell id="15" value="&lt;b&gt;Compute_TSR_pitch&lt;/b&gt;&lt;div&gt;(computes and stores the TSR and pitch for the wind speed value given using operational data)&lt;/div&gt;" style="rounded=0;whiteSpace=wrap;html=1;" parent="1" vertex="1">
                    <mxGeometry x="635" y="574" width="130" height="120" as="geometry"/>
                </mxCell>
                <mxCell id="28" value="" style="edgeStyle=none;html=1;" parent="1" source="16" target="17" edge="1">
                    <mxGeometry relative="1" as="geometry"/>
                </mxCell>
                <mxCell id="16" value="&lt;b&gt;Compute_ind_factors&lt;/b&gt;&lt;div&gt;(Computes inductional factors for a given wind speed, rotational speed, radial position, pitch angle, twsit angle)&lt;/div&gt;" style="rounded=0;whiteSpace=wrap;html=1;" parent="1" vertex="1">
                    <mxGeometry x="50" y="604" width="210" height="60" as="geometry"/>
                </mxCell>
                <mxCell id="29" value="" style="edgeStyle=none;html=1;" parent="1" source="17" target="18" edge="1">
                    <mxGeometry relative="1" as="geometry"/>
                </mxCell>
                <mxCell id="17" value="&lt;b&gt;Compute_local_thrust_moment&lt;/b&gt;&lt;div&gt;(Computes local thrust and moments for a given wind speed, inuction factors, tadial position)&lt;/div&gt;" style="rounded=0;whiteSpace=wrap;html=1;" parent="1" vertex="1">
                    <mxGeometry x="40" y="720" width="230" height="60" as="geometry"/>
                </mxCell>
                <mxCell id="56" style="edgeStyle=none;html=1;exitX=1;exitY=0.5;exitDx=0;exitDy=0;entryX=1;entryY=0.5;entryDx=0;entryDy=0;" parent="1" source="18" target="47" edge="1">
                    <mxGeometry relative="1" as="geometry">
                        <mxPoint x="847.5" y="439.9999999999999" as="targetPoint"/>
                        <mxPoint x="342.5" y="830" as="sourcePoint"/>
                        <Array as="points">
                            <mxPoint x="788" y="850"/>
                            <mxPoint x="790" y="460"/>
                        </Array>
                    </mxGeometry>
                </mxCell>
                <mxCell id="59" style="edgeStyle=none;html=1;exitX=0.5;exitY=1;exitDx=0;exitDy=0;" parent="1" source="18" target="58" edge="1">
                    <mxGeometry relative="1" as="geometry"/>
                </mxCell>
                <mxCell id="18" value="&lt;b&gt;Compute_Power_Thrust&lt;/b&gt;&lt;br&gt;(Computes the overall power and thrust for a given wind speed)" style="rounded=0;whiteSpace=wrap;html=1;" parent="1" vertex="1">
                    <mxGeometry x="55" y="820" width="200" height="60" as="geometry"/>
                </mxCell>
                <mxCell id="19" value="Plot_results&lt;div&gt;&lt;span style=&quot;font-weight: normal;&quot;&gt;(Plots the calculated Power, Thrust, and their coefficients for a range of wind speeds)&lt;/span&gt;&lt;/div&gt;" style="rounded=0;whiteSpace=wrap;html=1;fontStyle=1;fillColor=#ffe6cc;strokeColor=#d79b00;" parent="1" vertex="1">
                    <mxGeometry x="300" y="340" width="180" height="60" as="geometry"/>
                </mxCell>
                <mxCell id="40" value="" style="endArrow=none;html=1;entryX=0.5;entryY=1;entryDx=0;entryDy=0;" parent="1" target="3" edge="1">
                    <mxGeometry width="50" height="50" relative="1" as="geometry">
                        <mxPoint x="150" y="200" as="sourcePoint"/>
                        <mxPoint x="395" y="155" as="targetPoint"/>
                        <Array as="points">
                            <mxPoint x="350" y="200"/>
                        </Array>
                    </mxGeometry>
                </mxCell>
                <mxCell id="43" value="" style="endArrow=none;html=1;exitX=0.5;exitY=1;exitDx=0;exitDy=0;" parent="1" source="3" edge="1">
                    <mxGeometry width="50" height="50" relative="1" as="geometry">
                        <mxPoint x="490" y="210" as="sourcePoint"/>
                        <mxPoint x="530" y="180" as="targetPoint"/>
                        <Array as="points">
                            <mxPoint x="350" y="180"/>
                        </Array>
                    </mxGeometry>
                </mxCell>
                <mxCell id="55" style="edgeStyle=none;html=1;entryX=1;entryY=0.5;entryDx=0;entryDy=0;" parent="1" target="16" edge="1">
                    <mxGeometry relative="1" as="geometry">
                        <mxPoint x="700" y="490" as="sourcePoint"/>
                        <Array as="points">
                            <mxPoint x="410" y="634"/>
                        </Array>
                    </mxGeometry>
                </mxCell>
                <mxCell id="62" style="edgeStyle=none;html=1;exitX=0;exitY=0.5;exitDx=0;exitDy=0;entryX=1;entryY=0.5;entryDx=0;entryDy=0;" parent="1" source="47" target="19" edge="1">
                    <mxGeometry relative="1" as="geometry"/>
                </mxCell>
                <mxCell id="63" style="edgeStyle=none;html=1;exitX=0;exitY=0.5;exitDx=0;exitDy=0;entryX=1;entryY=0.5;entryDx=0;entryDy=0;" parent="1" source="47" target="57" edge="1">
                    <mxGeometry relative="1" as="geometry"/>
                </mxCell>
                <mxCell id="71" style="edgeStyle=none;html=1;exitX=1;exitY=0.5;exitDx=0;exitDy=0;entryX=0;entryY=0.5;entryDx=0;entryDy=0;" edge="1" parent="1" source="47" target="64">
                    <mxGeometry relative="1" as="geometry"/>
                </mxCell>
                <mxCell id="47" value="Wind Speed" style="rounded=0;whiteSpace=wrap;html=1;" parent="1" vertex="1">
                    <mxGeometry x="640" y="430" width="120" height="60" as="geometry"/>
                </mxCell>
                <mxCell id="54" style="edgeStyle=none;html=1;entryX=0.472;entryY=0.059;entryDx=0;entryDy=0;entryPerimeter=0;" parent="1" source="5" target="16" edge="1">
                    <mxGeometry relative="1" as="geometry"/>
                </mxCell>
                <mxCell id="57" value="Plot_CT_CP_TSR&lt;div&gt;&lt;span style=&quot;font-weight: normal;&quot;&gt;(For a range of wind speeds plots the power and thrust coefficients against Tip Speed Ratio)&lt;/span&gt;&lt;/div&gt;" style="rounded=0;whiteSpace=wrap;html=1;fontStyle=1;fillColor=#dae8fc;strokeColor=light-dark(#000000,#5C79A3);dashed=1;strokeWidth=4;" parent="1" vertex="1">
                    <mxGeometry x="300" y="490" width="180" height="90" as="geometry"/>
                </mxCell>
                <mxCell id="60" style="edgeStyle=none;html=1;entryX=1;entryY=0.5;entryDx=0;entryDy=0;" parent="1" source="58" target="47" edge="1">
                    <mxGeometry relative="1" as="geometry">
                        <Array as="points">
                            <mxPoint x="790" y="950"/>
                            <mxPoint x="790" y="460"/>
                        </Array>
                    </mxGeometry>
                </mxCell>
                <mxCell id="58" value="&lt;b&gt;Compute_CT_CP&lt;br&gt;&lt;/b&gt;(Computes thethrsut and power coeffiicients for a given wind speed)" style="rounded=0;whiteSpace=wrap;html=1;" parent="1" vertex="1">
                    <mxGeometry x="55" y="920" width="200" height="60" as="geometry"/>
                </mxCell>
                <mxCell id="61" value="Repeat for the considered range of wind speeds" style="text;html=1;align=center;verticalAlign=middle;whiteSpace=wrap;rounded=0;fontStyle=1;rotation=-90;" parent="1" vertex="1">
                    <mxGeometry x="650" y="664" width="320" height="30" as="geometry"/>
                </mxCell>
                <mxCell id="64" value="&lt;b&gt;Plot_Power_Thrust_Compare&lt;/b&gt;&lt;div&gt;(Makes a comparative plot of the Power and Thrust calculated using BEM and the operational data given)&lt;/div&gt;" style="rounded=0;whiteSpace=wrap;html=1;fillColor=#dae8fc;strokeColor=light-dark(#000000, #5c79a3);dashed=1;strokeWidth=4;" vertex="1" parent="1">
                    <mxGeometry x="830" y="425" width="230" height="70" as="geometry"/>
                </mxCell>
                <mxCell id="68" style="edgeStyle=none;html=1;exitX=0;exitY=0.5;exitDx=0;exitDy=0;entryX=0.5;entryY=0;entryDx=0;entryDy=0;" edge="1" parent="1" source="66" target="17">
                    <mxGeometry relative="1" as="geometry">
                        <Array as="points">
                            <mxPoint x="155" y="690"/>
                        </Array>
                    </mxGeometry>
                </mxCell>
                <mxCell id="66" value="&lt;b&gt;Corrected _ind_factors&lt;/b&gt;&lt;div&gt;(Computes the inductional factors including tip losses and Glauert&#39;s correction and uses results to make a comparative plot)&lt;/div&gt;" style="rounded=0;whiteSpace=wrap;html=1;fillColor=#ffe6cc;strokeColor=light-dark(#000000, #996500);gradientColor=none;gradientDirection=radial;shadow=0;dashed=1;strokeWidth=4;" vertex="1" parent="1">
                    <mxGeometry x="320" y="650" width="220" height="80" as="geometry"/>
                </mxCell>
                <mxCell id="72" style="edgeStyle=none;html=1;entryX=0.558;entryY=0.065;entryDx=0;entryDy=0;entryPerimeter=0;" edge="1" parent="1" source="13" target="64">
                    <mxGeometry relative="1" as="geometry">
                        <Array as="points">
                            <mxPoint x="958" y="125"/>
                        </Array>
                    </mxGeometry>
                </mxCell>
                <mxCell id="73" value="" style="rounded=0;whiteSpace=wrap;html=1;fillColor=#ffe6cc;strokeColor=#d79b00;" vertex="1" parent="1">
                    <mxGeometry x="135" y="1020" width="65" height="40" as="geometry"/>
                </mxCell>
                <mxCell id="74" value="" style="rounded=0;whiteSpace=wrap;html=1;fillColor=#dae8fc;strokeColor=#6c8ebf;" vertex="1" parent="1">
                    <mxGeometry x="135" y="1080" width="65" height="40" as="geometry"/>
                </mxCell>
                <mxCell id="75" value="" style="rounded=0;whiteSpace=wrap;html=1;dashed=1;strokeWidth=4;" vertex="1" parent="1">
                    <mxGeometry x="135" y="1140" width="65" height="40" as="geometry"/>
                </mxCell>
                <mxCell id="76" value="Classes" style="text;html=1;align=center;verticalAlign=middle;whiteSpace=wrap;rounded=0;" vertex="1" parent="1">
                    <mxGeometry x="220" y="1025" width="60" height="30" as="geometry"/>
                </mxCell>
                <mxCell id="77" value="Plots" style="text;html=1;align=center;verticalAlign=middle;whiteSpace=wrap;rounded=0;" vertex="1" parent="1">
                    <mxGeometry x="220" y="1085" width="60" height="30" as="geometry"/>
                </mxCell>
                <mxCell id="78" value="Additional functionalities" style="text;html=1;align=center;verticalAlign=middle;whiteSpace=wrap;rounded=0;" vertex="1" parent="1">
                    <mxGeometry x="220" y="1145" width="80" height="30" as="geometry"/>
                </mxCell>
                <mxCell id="88" style="edgeStyle=none;html=1;entryX=0.5;entryY=0;entryDx=0;entryDy=0;" edge="1" parent="1" source="79" target="80">
                    <mxGeometry relative="1" as="geometry">
                        <Array as="points">
                            <mxPoint x="1340" y="170"/>
                        </Array>
                    </mxGeometry>
                </mxCell>
                <mxCell id="89" style="edgeStyle=none;html=1;exitX=0.5;exitY=1;exitDx=0;exitDy=0;entryX=0.5;entryY=0;entryDx=0;entryDy=0;" edge="1" parent="1" source="79" target="81">
                    <mxGeometry relative="1" as="geometry">
                        <Array as="points">
                            <mxPoint x="1340" y="170"/>
                        </Array>
                    </mxGeometry>
                </mxCell>
                <mxCell id="79" value="&lt;b&gt;Aerodynamic_inputs (class)&lt;/b&gt;&lt;div&gt;(Creates tables on lift and drag coefficients corresponding to the ordered airfoils and angles of attack)&lt;/div&gt;" style="rounded=0;whiteSpace=wrap;html=1;fillColor=#ffe6cc;strokeColor=#d79b00;" vertex="1" parent="1">
                    <mxGeometry x="1250" y="50" width="180" height="90" as="geometry"/>
                </mxCell>
                <mxCell id="80" value="&lt;b&gt;group_data_cl&lt;/b&gt;&lt;div&gt;(Groups the lift coefficient in terms of angle fo attack and the radial position)&lt;/div&gt;" style="rounded=0;whiteSpace=wrap;html=1;" vertex="1" parent="1">
                    <mxGeometry x="1140" y="210" width="180" height="60" as="geometry"/>
                </mxCell>
                <mxCell id="81" value="&lt;b&gt;group_data_cd&lt;/b&gt;&lt;div&gt;(Groups the drag coefficient in terms of angle fo attack and the radial position)&lt;/div&gt;" style="rounded=0;whiteSpace=wrap;html=1;" vertex="1" parent="1">
                    <mxGeometry x="1410" y="210" width="180" height="60" as="geometry"/>
                </mxCell>
                <mxCell id="90" style="edgeStyle=none;html=1;entryX=0.5;entryY=0;entryDx=0;entryDy=0;" edge="1" parent="1" source="82" target="83">
                    <mxGeometry relative="1" as="geometry">
                        <Array as="points">
                            <mxPoint x="1365" y="430"/>
                        </Array>
                    </mxGeometry>
                </mxCell>
                <mxCell id="91" style="edgeStyle=none;html=1;entryX=0.5;entryY=0;entryDx=0;entryDy=0;" edge="1" parent="1" source="82" target="84">
                    <mxGeometry relative="1" as="geometry">
                        <Array as="points">
                            <mxPoint x="1365" y="430"/>
                        </Array>
                    </mxGeometry>
                </mxCell>
                <mxCell id="82" value="Plot_results&lt;div&gt;&lt;span style=&quot;font-weight: normal;&quot;&gt;(Plots the calculated Power, Thrust, and their coefficients for a range of wind speeds)&lt;/span&gt;&lt;/div&gt;" style="rounded=0;whiteSpace=wrap;html=1;fontStyle=1;fillColor=#ffe6cc;strokeColor=#d79b00;" vertex="1" parent="1">
                    <mxGeometry x="1275" y="340" width="180" height="60" as="geometry"/>
                </mxCell>
                <mxCell id="83" value="&lt;b&gt;Plot_Power_Thrust&lt;/b&gt;&lt;br&gt;&lt;div&gt;(Plots the Power and Thrust calculated as a function of wind speed)&lt;/div&gt;" style="rounded=0;whiteSpace=wrap;html=1;" vertex="1" parent="1">
                    <mxGeometry x="1150" y="450" width="180" height="60" as="geometry"/>
                </mxCell>
                <mxCell id="84" value="&lt;b&gt;Plot_CT_CP&lt;/b&gt;&lt;br&gt;&lt;div&gt;(Plots the Power and Thrust coefficients calculated as a function of wind speed)&lt;/div&gt;" style="rounded=0;whiteSpace=wrap;html=1;" vertex="1" parent="1">
                    <mxGeometry x="1440" y="450" width="180" height="60" as="geometry"/>
                </mxCell>
                <mxCell id="92" style="edgeStyle=none;html=1;entryX=0.5;entryY=0;entryDx=0;entryDy=0;" edge="1" parent="1" source="85" target="86">
                    <mxGeometry relative="1" as="geometry">
                        <Array as="points">
                            <mxPoint x="1360" y="680"/>
                        </Array>
                    </mxGeometry>
                </mxCell>
                <mxCell id="93" style="edgeStyle=none;html=1;entryX=0.5;entryY=0;entryDx=0;entryDy=0;" edge="1" parent="1" source="85" target="87">
                    <mxGeometry relative="1" as="geometry">
                        <Array as="points">
                            <mxPoint x="1360" y="680"/>
                        </Array>
                    </mxGeometry>
                </mxCell>
                <mxCell id="85" value="&lt;b&gt;Corrected _ind_factors&lt;/b&gt;&lt;div&gt;(Computes the inductional factors including tip losses and Glauert&#39;s correction and uses results to make a comparative plot)&lt;/div&gt;" style="rounded=0;whiteSpace=wrap;html=1;fillColor=#ffe6cc;strokeColor=light-dark(#000000, #996500);gradientColor=none;gradientDirection=radial;shadow=0;dashed=1;strokeWidth=4;" vertex="1" parent="1">
                    <mxGeometry x="1255" y="574" width="220" height="80" as="geometry"/>
                </mxCell>
                <mxCell id="86" value="&lt;b&gt;Compute_ind_factors_corrected&lt;/b&gt;&lt;br&gt;&lt;div&gt;(Computes induction factors using Prandtl&#39;s tip correction and Glauert&#39;s method)&lt;/div&gt;" style="rounded=0;whiteSpace=wrap;html=1;" vertex="1" parent="1">
                    <mxGeometry x="1110" y="710" width="190" height="60" as="geometry"/>
                </mxCell>
                <mxCell id="87" value="&lt;b&gt;plot_compare_Power_Thrust_models&lt;/b&gt;&lt;br&gt;&lt;div&gt;(Makes comparative plots on Power and Thrust calculated with and without using the mentioned correction methods)&lt;/div&gt;" style="rounded=0;whiteSpace=wrap;html=1;" vertex="1" parent="1">
                    <mxGeometry x="1430" y="710" width="245" height="60" as="geometry"/>
                </mxCell>
            </root>
        </mxGraphModel>
    </diagram>
</mxfile>